<svg width="65" height="64" viewBox="0 0 65 64" fill="none" xmlns="http://www.w3.org/2000/svg">
<g clip-path="url(#clip0_530_427)">
<path d="M32.5 64C50.4493 64 65 49.6731 65 32C65 14.3269 50.4493 0 32.5 0C14.5507 0 0 14.3269 0 32C0 49.6731 14.5507 64 32.5 64Z" fill="url(#paint0_linear_530_427)"/>
<path fill-rule="evenodd" clip-rule="evenodd" d="M14.7115 31.6624C24.1859 27.598 30.5037 24.9186 33.6648 23.624C42.6904 19.9277 44.5658 19.2856 45.7882 19.2644C46.0571 19.2597 46.6582 19.3253 47.0476 19.6364C47.3764 19.8991 47.4668 20.254 47.5101 20.503C47.5534 20.7521 47.6073 21.3194 47.5645 21.7628C47.0754 26.8227 44.959 39.1019 43.8824 44.7691C43.4268 47.1671 42.5297 47.9712 41.6613 48.0499C39.774 48.2209 38.3408 46.8218 36.5128 45.6419C33.6524 43.7957 32.0364 42.6465 29.2599 40.8449C26.0511 38.7629 28.1313 37.6186 29.9599 35.7485C30.4385 35.2591 38.7541 27.8118 38.9151 27.1362C38.9352 27.0517 38.9539 26.7367 38.7639 26.5704C38.5738 26.4041 38.2934 26.461 38.091 26.5062C37.8041 26.5703 33.2345 29.5442 24.3823 35.4277C23.0852 36.3047 21.9104 36.732 20.8578 36.7096C19.6974 36.6849 17.4652 36.0636 15.8058 35.5325C13.7705 34.881 12.1528 34.5366 12.2937 33.4303C12.3671 32.8541 13.173 32.2648 14.7115 31.6624Z" fill="white"/>
</g>
<defs>
<linearGradient id="paint0_linear_530_427" x1="32.5" y1="0" x2="32.5" y2="63.5253" gradientUnits="userSpaceOnUse">
<stop stop-color="#2AABEE"/>
<stop offset="1" stop-color="#229ED9"/>
</linearGradient>
<clipPath id="clip0_530_427">
<rect width="65" height="64" fill="white"/>
</clipPath>
</defs>
</svg>
