<svg width="65" height="65" viewBox="0 0 65 65" fill="none" xmlns="http://www.w3.org/2000/svg">
<path d="M0 65L4.56895 48.3085C1.74958 43.4227 0.268124 37.8842 0.270833 32.2048C0.278958 14.449 14.7279 0 32.481 0C41.0962 0.00270833 49.1832 3.35833 55.2661 9.44667C61.3463 15.535 64.6938 23.6275 64.6911 32.2346C64.683 49.9931 50.2341 64.4421 32.481 64.4421C27.0914 64.4394 21.7804 63.0879 17.076 60.5204L0 65ZM17.8668 54.6894C22.406 57.3842 26.7393 58.9983 32.4701 59.001C47.2251 59.001 59.2447 46.9923 59.2528 32.2292C59.2582 17.4362 47.2955 5.44375 32.4918 5.43833C17.726 5.43833 5.71457 17.4471 5.70915 32.2075C5.70645 38.2335 7.47228 42.7456 10.4379 47.4662L7.73227 57.3462L17.8668 54.6894ZM48.7066 39.891C48.5061 39.5552 47.9699 39.3548 47.1628 38.9512C46.3584 38.5477 42.4016 36.6004 41.6622 36.3323C40.9255 36.0642 40.3893 35.9287 39.8503 36.7358C39.3141 37.5402 37.7703 39.3548 37.3018 39.891C36.8333 40.4273 36.362 40.495 35.5576 40.0915C34.7533 39.6879 32.1587 38.8402 29.0847 36.0967C26.6933 33.9625 25.0764 31.3273 24.6079 30.5202C24.1393 29.7158 24.5591 29.2798 24.9599 28.879C25.3229 28.5187 25.7643 27.9392 26.1679 27.4679C26.5768 27.0021 26.7095 26.6663 26.9804 26.1273C27.2485 25.591 27.1158 25.1198 26.9126 24.7162C26.7095 24.3154 25.1008 20.3531 24.4318 18.7417C23.7764 17.1735 23.1129 17.3848 22.6199 17.3604L21.0762 17.3333C20.54 17.3333 19.6679 17.5337 18.9312 18.3408C18.1945 19.1479 16.1145 21.0925 16.1145 25.0548C16.1145 29.0171 18.9989 32.844 19.3997 33.3802C19.8033 33.9165 25.0737 42.0469 33.1472 45.5325C35.0674 46.3612 36.5678 46.8569 37.7351 47.2279C39.6635 47.84 41.4184 47.7533 42.8051 47.5475C44.3516 47.3173 47.5664 45.6002 48.238 43.7206C48.9097 41.8383 48.9097 40.2269 48.7066 39.891Z" fill="#25D366"/>
</svg>
