<svg width="65" height="65" viewBox="0 0 65 65" fill="none" xmlns="http://www.w3.org/2000/svg">
<g clip-path="url(#clip0_530_426)">
<path d="M0 31.2C0 16.4921 0 9.13827 4.56913 4.56913C9.13827 0 16.4921 0 31.2 0H33.8C48.5079 0 55.8617 0 60.4309 4.56913C65 9.13827 65 16.4921 65 31.2V33.8C65 48.5079 65 55.8617 60.4309 60.4309C55.8617 65 48.5079 65 33.8 65H31.2C16.4921 65 9.13827 65 4.56913 60.4309C0 55.8617 0 48.5079 0 33.8V31.2Z" fill="#0077FF"/>
<path d="M34.5853 46.8272C19.7707 46.8272 11.3208 36.671 10.9688 19.771H18.3896C18.6333 32.1752 24.104 37.4293 28.4374 38.5127V19.771H35.4251V30.4689C39.7043 30.0085 44.1996 25.1335 45.7163 19.771H52.7039C51.5393 26.3793 46.6643 31.2543 43.1976 33.2585C46.6643 34.8835 52.2167 39.1356 54.3292 46.8272H46.6372C44.9851 41.6814 40.8689 37.7002 35.4251 37.1585V46.8272H34.5853Z" fill="white"/>
</g>
<defs>
<clipPath id="clip0_530_426">
<rect width="65" height="65" fill="white"/>
</clipPath>
</defs>
</svg>
