<svg width="210" height="32" viewBox="0 0 210 32" fill="none" xmlns="http://www.w3.org/2000/svg">
<path d="M8.49432 25H1.21875V6.09091H8.42046C10.3655 6.09091 12.0459 6.46946 13.4616 7.22656C14.8835 7.97751 15.9792 9.06084 16.7486 10.4766C17.5241 11.8861 17.9119 13.5758 17.9119 15.5455C17.9119 17.5152 17.5272 19.2079 16.7578 20.6236C15.9884 22.0331 14.8989 23.1165 13.4893 23.8736C12.0798 24.6245 10.4148 25 8.49432 25ZM6.35227 20.642H8.30966C9.24527 20.642 10.0424 20.4912 10.701 20.1896C11.3658 19.888 11.8705 19.3679 12.2152 18.6293C12.5661 17.8906 12.7415 16.8627 12.7415 15.5455C12.7415 14.2282 12.563 13.2003 12.206 12.4616C11.8551 11.723 11.3381 11.2029 10.6548 10.9013C9.97775 10.5997 9.14678 10.4489 8.16193 10.4489H6.35227V20.642ZM19.8469 25V6.09091H33.4747V10.2273H24.9804V13.4773H32.773V17.6136H24.9804V20.8636H33.4378V25H19.8469ZM35.0634 10.2273V6.09091H51.4981V10.2273H45.8106V25H40.7509V10.2273H35.0634ZM55.515 25H49.9753L56.2168 6.09091H63.2338L69.4753 25H63.9355L59.7991 11.2983H59.6514L55.515 25ZM54.481 17.5398H64.8957V21.3807H54.481V17.5398ZM75.9898 6.09091V25H70.8562V6.09091H75.9898ZM77.9824 25V6.09091H83.1159V20.8636H90.7608V25H77.9824ZM101.776 13.625V17.4659H92.9127V13.625H101.776ZM116.575 12.3324C116.495 12.0062 116.369 11.7199 116.197 11.4737C116.024 11.2214 115.809 11.009 115.55 10.8366C115.298 10.6581 115.002 10.5258 114.664 10.4396C114.332 10.3473 113.965 10.3011 113.565 10.3011C112.703 10.3011 111.968 10.5073 111.359 10.9197C110.755 11.3321 110.294 11.9261 109.974 12.7017C109.66 13.4773 109.503 14.4129 109.503 15.5085C109.503 16.6165 109.653 17.5644 109.955 18.3523C110.257 19.1402 110.706 19.7434 111.303 20.1619C111.9 20.5805 112.642 20.7898 113.528 20.7898C114.31 20.7898 114.959 20.6759 115.476 20.4482C116 20.2204 116.39 19.8973 116.649 19.4787C116.908 19.0601 117.037 18.5677 117.037 18.0014L117.923 18.0938H113.602V14.4375H121.986V17.0597C121.986 18.7831 121.619 20.2573 120.887 21.4822C120.161 22.701 119.157 23.6366 117.877 24.2891C116.603 24.9354 115.141 25.2585 113.491 25.2585C111.651 25.2585 110.035 24.8677 108.644 24.0859C107.253 23.3042 106.167 22.1901 105.385 20.7436C104.609 19.2971 104.221 17.5767 104.221 15.5824C104.221 14.0189 104.458 12.634 104.932 11.4276C105.412 10.2211 106.077 9.20241 106.927 8.37145C107.776 7.53433 108.758 6.90341 109.872 6.47869C110.986 6.04782 112.18 5.83239 113.454 5.83239C114.575 5.83239 115.615 5.99242 116.575 6.3125C117.542 6.62642 118.394 7.07576 119.133 7.66051C119.877 8.23911 120.478 8.92543 120.933 9.71946C121.389 10.5135 121.666 11.3845 121.764 12.3324H116.575ZM123.939 25V6.09091H132.101C133.504 6.09091 134.732 6.34635 135.785 6.85724C136.837 7.36813 137.656 8.10369 138.241 9.06392C138.826 10.0241 139.118 11.1752 139.118 12.517C139.118 13.8712 138.816 15.013 138.213 15.9425C137.616 16.8719 136.776 17.5736 135.693 18.0476C134.615 18.5215 133.357 18.7585 131.916 18.7585H127.041V14.7699H130.882C131.485 14.7699 131.999 14.696 132.424 14.5483C132.855 14.3944 133.184 14.1513 133.412 13.8189C133.646 13.4865 133.763 13.0526 133.763 12.517C133.763 11.9754 133.646 11.5353 133.412 11.1967C133.184 10.852 132.855 10.5997 132.424 10.4396C131.999 10.2734 131.485 10.1903 130.882 10.1903H129.073V25H123.939ZM135.019 16.321L139.746 25H134.169L129.553 16.321H135.019ZM159.184 15.5455C159.184 17.6506 158.775 19.4264 157.956 20.8729C157.138 22.3132 156.033 23.4058 154.642 24.1506C153.25 24.8892 151.699 25.2585 149.988 25.2585C148.265 25.2585 146.707 24.8861 145.316 24.1413C143.931 23.3904 142.83 22.2947 142.011 20.8544C141.198 19.4079 140.792 17.6383 140.792 15.5455C140.792 13.4403 141.198 11.6676 142.011 10.2273C142.83 8.78078 143.931 7.68821 145.316 6.94957C146.707 6.20478 148.265 5.83239 149.988 5.83239C151.699 5.83239 153.25 6.20478 154.642 6.94957C156.033 7.68821 157.138 8.78078 157.956 10.2273C158.775 11.6676 159.184 13.4403 159.184 15.5455ZM153.903 15.5455C153.903 14.4129 153.752 13.4588 153.45 12.6832C153.155 11.9015 152.715 11.3106 152.13 10.9105C151.552 10.5043 150.838 10.3011 149.988 10.3011C149.139 10.3011 148.422 10.5043 147.837 10.9105C147.258 11.3106 146.818 11.9015 146.517 12.6832C146.221 13.4588 146.073 14.4129 146.073 15.5455C146.073 16.678 146.221 17.6352 146.517 18.4169C146.818 19.1925 147.258 19.7834 147.837 20.1896C148.422 20.5897 149.139 20.7898 149.988 20.7898C150.838 20.7898 151.552 20.5897 152.13 20.1896C152.715 19.7834 153.155 19.1925 153.45 18.4169C153.752 17.6352 153.903 16.678 153.903 15.5455ZM172.309 6.09091H177.443V18.2045C177.443 19.6449 177.098 20.8913 176.409 21.9439C175.726 22.9903 174.772 23.7997 173.547 24.3722C172.322 24.9384 170.9 25.2216 169.281 25.2216C167.65 25.2216 166.222 24.9384 164.997 24.3722C163.772 23.7997 162.818 22.9903 162.135 21.9439C161.458 20.8913 161.119 19.6449 161.119 18.2045V6.09091H166.253V17.7614C166.253 18.3461 166.382 18.8693 166.64 19.331C166.899 19.7865 167.256 20.1435 167.711 20.402C168.173 20.6605 168.696 20.7898 169.281 20.7898C169.872 20.7898 170.395 20.6605 170.851 20.402C171.306 20.1435 171.663 19.7865 171.922 19.331C172.18 18.8693 172.309 18.3461 172.309 17.7614V6.09091ZM179.443 25V6.09091H187.604C189.008 6.09091 190.236 6.3679 191.288 6.92188C192.341 7.47585 193.16 8.2545 193.744 9.25781C194.329 10.2611 194.622 11.4337 194.622 12.7756C194.622 14.1297 194.32 15.3023 193.717 16.2933C193.12 17.2843 192.279 18.0476 191.196 18.5831C190.119 19.1186 188.86 19.3864 187.42 19.3864H182.545V15.3977H186.386C186.989 15.3977 187.503 15.2931 187.928 15.0838C188.359 14.8684 188.688 14.5637 188.916 14.1697C189.149 13.7758 189.266 13.3111 189.266 12.7756C189.266 12.2339 189.149 11.7723 188.916 11.3906C188.688 11.0028 188.359 10.7074 187.928 10.5043C187.503 10.295 186.989 10.1903 186.386 10.1903H184.576V25H179.443Z" fill="#FFD000"/>
<path d="M195.222 2.33082V1.02344H200.416V2.33082H198.619V7H197.019V2.33082H195.222ZM200.88 1.02344H202.9L204.289 4.4086H204.359L205.748 1.02344H207.767V7H206.18V3.5448H206.133L204.802 6.95331H203.845L202.514 3.52146H202.468V7H200.88V1.02344Z" fill="#FFD000"/>
</svg>
