<svg width="200" height="20" viewBox="0 0 399 38" fill="none" xmlns="http://www.w3.org/2000/svg">
<path d="M16.3352 37H2.34375V0.636363H16.1932C19.9337 0.636363 23.1652 1.36435 25.8878 2.82031C28.6222 4.26444 30.7292 6.34777 32.2088 9.07031C33.7003 11.781 34.446 15.0303 34.446 18.8182C34.446 22.6061 33.7062 25.8613 32.2266 28.5838C30.7469 31.2945 28.6518 33.3778 25.9411 34.8338C23.2304 36.2779 20.0284 37 16.3352 37ZM12.2159 28.6193H15.9801C17.7794 28.6193 19.3123 28.3293 20.5788 27.7493C21.8572 27.1693 22.8279 26.169 23.4908 24.7486C24.1655 23.3281 24.5028 21.3513 24.5028 18.8182C24.5028 16.285 24.1596 14.3082 23.473 12.8878C22.7983 11.4673 21.804 10.4671 20.4901 9.88707C19.188 9.30705 17.59 9.01704 15.696 9.01704H12.2159V28.6193ZM39.0137 37V0.636363H65.2211V8.59091H48.8858V14.8409H63.8716V22.7955H48.8858V29.0455H65.15V37H39.0137ZM69.1229 8.59091V0.636363H100.728V8.59091H89.7905V37H80.0604V8.59091H69.1229ZM109.3 37H98.6461L110.649 0.636363H124.143L136.146 37H125.493L117.538 10.6506H117.254L109.3 37ZM107.311 22.6534H127.339V30.0398H107.311V22.6534ZM149.521 0.636363V37H139.648V0.636363H149.521ZM154.199 37V0.636363H164.071V29.0455H178.773V37H154.199ZM200.803 15.125V22.5114H183.758V15.125H200.803ZM230.109 12.6392C229.955 12.0118 229.713 11.4614 229.381 10.9879C229.05 10.5026 228.635 10.0942 228.138 9.76278C227.653 9.41951 227.085 9.16501 226.434 8.99929C225.795 8.82173 225.09 8.73295 224.321 8.73295C222.664 8.73295 221.249 9.1295 220.077 9.92258C218.917 10.7157 218.029 11.858 217.414 13.3494C216.81 14.8409 216.508 16.6402 216.508 18.7472C216.508 20.8778 216.798 22.7008 217.378 24.2159C217.958 25.7311 218.823 26.8911 219.971 27.696C221.119 28.5009 222.545 28.9034 224.25 28.9034C225.753 28.9034 227.002 28.6844 227.996 28.2464C229.002 27.8085 229.754 27.187 230.251 26.3821C230.748 25.5772 230.997 24.6302 230.997 23.5412L232.702 23.7188H224.392V16.6875H240.514V21.7301C240.514 25.0445 239.81 27.8795 238.401 30.2351C237.004 32.5788 235.075 34.3781 232.613 35.6328C230.162 36.8757 227.351 37.4972 224.179 37.4972C220.64 37.4972 217.532 36.7455 214.857 35.2422C212.182 33.7389 210.093 31.5964 208.589 28.8146C207.098 26.0329 206.352 22.7244 206.352 18.8892C206.352 15.8826 206.808 13.2192 207.719 10.8991C208.643 8.57907 209.921 6.62003 211.555 5.02202C213.188 3.41217 215.076 2.19886 217.219 1.3821C219.361 0.553502 221.657 0.139203 224.108 0.139203C226.262 0.139203 228.263 0.446969 230.109 1.0625C231.968 1.66619 233.607 2.5303 235.028 3.65483C236.46 4.76752 237.614 6.08736 238.49 7.61435C239.366 9.14133 239.898 10.8163 240.088 12.6392H230.109ZM245.117 37V0.636363H260.813C263.512 0.636363 265.874 1.1276 267.898 2.11008C269.922 3.09257 271.496 4.5071 272.621 6.35369C273.745 8.20028 274.308 10.4138 274.308 12.9943C274.308 15.5985 273.728 17.7943 272.567 19.5817C271.419 21.3691 269.804 22.7185 267.72 23.63C265.649 24.5414 263.228 24.9972 260.458 24.9972H251.083V17.3267H258.469C259.629 17.3267 260.618 17.1847 261.435 16.9006C262.263 16.6046 262.897 16.1371 263.335 15.4979C263.784 14.8587 264.009 14.0241 264.009 12.9943C264.009 11.9527 263.784 11.1063 263.335 10.4553C262.897 9.79238 262.263 9.30705 261.435 8.99929C260.618 8.67969 259.629 8.51988 258.469 8.51988H254.989V37H245.117ZM266.424 20.3097L275.515 37H264.79L255.913 20.3097H266.424ZM313.743 18.8182C313.743 22.8665 312.956 26.2815 311.381 29.0632C309.807 31.8331 307.682 33.9342 305.007 35.3665C302.332 36.7869 299.349 37.4972 296.058 37.4972C292.744 37.4972 289.749 36.781 287.074 35.3487C284.411 33.9046 282.292 31.7976 280.717 29.0277C279.155 26.246 278.374 22.8428 278.374 18.8182C278.374 14.7699 279.155 11.3608 280.717 8.59091C282.292 5.80918 284.411 3.70809 287.074 2.28764C289.749 0.855349 292.744 0.139203 296.058 0.139203C299.349 0.139203 302.332 0.855349 305.007 2.28764C307.682 3.70809 309.807 5.80918 311.381 8.59091C312.956 11.3608 313.743 14.7699 313.743 18.8182ZM303.587 18.8182C303.587 16.6402 303.297 14.8054 302.717 13.3139C302.148 11.8106 301.302 10.6742 300.178 9.90483C299.065 9.12358 297.692 8.73295 296.058 8.73295C294.425 8.73295 293.046 9.12358 291.921 9.90483C290.808 10.6742 289.962 11.8106 289.382 13.3139C288.814 14.8054 288.53 16.6402 288.53 18.8182C288.53 20.9962 288.814 22.8369 289.382 24.3402C289.962 25.8317 290.808 26.968 291.921 27.7493C293.046 28.5187 294.425 28.9034 296.058 28.9034C297.692 28.9034 299.065 28.5187 300.178 27.7493C301.302 26.968 302.148 25.8317 302.717 24.3402C303.297 22.8369 303.587 20.9962 303.587 18.8182ZM339.83 0.636363H349.703V23.9318C349.703 26.7017 349.04 29.0987 347.714 31.1229C346.4 33.1352 344.565 34.6918 342.21 35.7926C339.854 36.8816 337.12 37.4261 334.007 37.4261C330.87 37.4261 328.124 36.8816 325.768 35.7926C323.412 34.6918 321.578 33.1352 320.264 31.1229C318.962 29.0987 318.311 26.7017 318.311 23.9318V0.636363H328.183V23.0795C328.183 24.2041 328.431 25.2102 328.928 26.098C329.426 26.974 330.112 27.6605 330.988 28.1577C331.876 28.6548 332.882 28.9034 334.007 28.9034C335.143 28.9034 336.149 28.6548 337.025 28.1577C337.901 27.6605 338.588 26.974 339.085 26.098C339.582 25.2102 339.83 24.2041 339.83 23.0795V0.636363ZM354.395 37V0.636363H370.091C372.789 0.636363 375.151 1.16903 377.175 2.23438C379.199 3.29971 380.774 4.79711 381.898 6.72656C383.023 8.65601 383.585 10.911 383.585 13.4915C383.585 16.0956 383.005 18.3506 381.845 20.2564C380.697 22.1622 379.081 23.63 376.998 24.6598C374.926 25.6896 372.505 26.2045 369.735 26.2045H360.36V18.5341H367.747C368.907 18.5341 369.895 18.3329 370.712 17.9304C371.541 17.5161 372.174 16.9302 372.612 16.1726C373.062 15.415 373.287 14.5213 373.287 13.4915C373.287 12.4498 373.062 11.562 372.612 10.8281C372.174 10.0824 371.541 9.5142 370.712 9.12358C369.895 8.72112 368.907 8.51988 367.747 8.51988H364.267V37H354.395Z" fill="#FFD000"/>
<path d="M385.222 8.33082V7.02344H390.416V8.33082H388.619V13H387.019V8.33082H385.222ZM390.88 7.02344H392.9L394.289 10.4086H394.359L395.748 7.02344H397.767V13H396.18V9.5448H396.133L394.802 12.9533H393.845L392.514 9.52146H392.468V13H390.88V7.02344Z" fill="#FFD000"/>
</svg>
